<?xml version="1.0" standalone="no"?>
<!DOCTYPE svg PUBLIC "-//W3C//DTD SVG 20010904//EN"
 "http://www.w3.org/TR/2001/REC-SVG-20010904/DTD/svg10.dtd">
<svg version="1.0" xmlns="http://www.w3.org/2000/svg"
 width="1024.000000pt" height="1024.000000pt" viewBox="0 0 1024.000000 1024.000000"
 preserveAspectRatio="xMidYMid meet">

<g transform="translate(0.000000,1024.000000) scale(0.100000,-0.100000)"
fill="#000000" stroke="none">
<path d="M6795 10234 c-16 -2 -894 -65 -1950 -139 -4144 -292 -4284 -303
-4368 -324 -232 -60 -384 -209 -450 -438 l-22 -78 -3 -3228 c-2 -3214 -2
-3228 18 -3328 34 -165 93 -298 212 -476 62 -92 1401 -1771 1553 -1946 65 -76
171 -159 249 -197 148 -70 355 -92 681 -71 99 6 1620 94 3380 196 3570 206
3477 200 3584 220 310 59 477 205 538 470 17 77 18 221 18 3715 l0 3635 -27
55 c-30 61 -101 138 -187 204 -70 53 -1452 989 -2175 1473 -193 129 -362 205
-528 239 -79 16 -445 28 -523 18z m371 -585 c105 -16 235 -58 334 -107 53 -27
218 -134 375 -243 154 -108 413 -288 575 -401 250 -173 299 -211 319 -247 27
-50 22 -57 -44 -66 -22 -2 -555 -34 -1185 -70 -1085 -62 -4257 -244 -4889
-281 -436 -26 -565 -5 -755 120 -107 71 -920 689 -954 725 -13 14 -22 37 -22
55 0 59 45 97 137 116 26 5 1144 86 2483 180 1339 94 2647 186 2905 204 464
34 583 37 721 15z m2154 -1750 c63 -13 127 -61 159 -118 54 -98 51 96 51
-3212 0 -2121 -3 -3083 -11 -3123 -31 -167 -129 -263 -304 -295 -98 -19 -6541
-373 -6680 -368 -224 8 -337 77 -392 238 -17 52 -18 175 -18 3159 l0 3105 23
57 c25 63 88 128 148 153 20 8 67 20 103 26 36 5 1515 90 3286 189 1771 98
3272 183 3335 188 170 13 243 13 300 1z"/>
<path d="M7711 6770 c-360 -21 -674 -41 -697 -45 -65 -9 -159 -61 -203 -111
-60 -69 -84 -127 -85 -209 l-1 -70 270 -30 270 -30 3 -1370 c1 -873 -1 -1366
-8 -1359 -10 10 -807 1176 -1610 2358 l-495 727 -105 -5 c-58 -4 -348 -22
-645 -41 -939 -61 -898 -56 -988 -116 -95 -63 -167 -204 -167 -329 l0 -59 43
-6 c50 -7 420 -35 460 -35 l27 0 0 -1963 0 -1964 -182 -47 c-101 -26 -202 -57
-225 -67 -77 -37 -123 -124 -123 -235 l0 -64 46 0 c111 0 1506 81 1566 90 139
24 266 112 319 225 16 33 29 74 29 90 l0 30 -317 68 c-175 38 -319 70 -320 71
-2 2 -2 668 -1 1481 l3 1479 195 -295 c882 -1335 1851 -2783 1908 -2851 134
-160 222 -233 337 -279 56 -22 73 -24 245 -23 170 0 193 3 284 28 116 31 269
90 376 145 l75 38 3 2190 2 2190 128 22 c241 44 260 50 307 95 63 60 91 175
69 285 l-6 31 -67 -1 c-36 -1 -360 -19 -720 -39z"/>
</g>
</svg>
